<svg width="25" height="24" viewBox="0 0 25 24" fill="none" xmlns="http://www.w3.org/2000/svg">
<g id="[Icon] facebook-box-line">
<path id="Vector" d="M14.75 19H19.75V5H5.75V19H12.75V14H10.75V12H12.75V10.346C12.75 9.009 12.89 8.524 13.15 8.035C13.4061 7.55119 13.802 7.15569 14.286 6.9C14.668 6.695 15.143 6.572 15.973 6.519C16.302 6.498 16.728 6.524 17.251 6.599V8.499H16.75C15.833 8.499 15.454 8.542 15.228 8.663C15.0931 8.73236 14.9834 8.84215 14.914 8.977C14.794 9.203 14.75 9.427 14.75 10.345V12H17.25L16.75 14H14.75V19ZM4.75 3H20.75C21.0152 3 21.2696 3.10536 21.4571 3.29289C21.6446 3.48043 21.75 3.73478 21.75 4V20C21.75 20.2652 21.6446 20.5196 21.4571 20.7071C21.2696 20.8946 21.0152 21 20.75 21H4.75C4.48478 21 4.23043 20.8946 4.04289 20.7071C3.85536 20.5196 3.75 20.2652 3.75 20V4C3.75 3.73478 3.85536 3.48043 4.04289 3.29289C4.23043 3.10536 4.48478 3 4.75 3Z" fill="#F5F5F5"/>
</g>
</svg>
