<svg width="21" height="20" viewBox="0 0 21 20" fill="none" xmlns="http://www.w3.org/2000/svg">
<g id="[Icon] shopping-bag-line">
<path id="Vector" d="M6.33333 6.66668V5.00001C6.33333 3.89494 6.77232 2.83513 7.55372 2.05373C8.33512 1.27233 9.39493 0.833344 10.5 0.833344C11.6051 0.833344 12.6649 1.27233 13.4463 2.05373C14.2277 2.83513 14.6667 3.89494 14.6667 5.00001V6.66668H17.1667C17.3877 6.66668 17.5996 6.75447 17.7559 6.91075C17.9122 7.06703 18 7.279 18 7.50001V17.5C18 17.721 17.9122 17.933 17.7559 18.0893C17.5996 18.2455 17.3877 18.3333 17.1667 18.3333H3.83333C3.61232 18.3333 3.40036 18.2455 3.24408 18.0893C3.0878 17.933 3 17.721 3 17.5V7.50001C3 7.279 3.0878 7.06703 3.24408 6.91075C3.40036 6.75447 3.61232 6.66668 3.83333 6.66668H6.33333ZM6.33333 8.33334H4.66667V16.6667H16.3333V8.33334H14.6667V10H13V8.33334H8V10H6.33333V8.33334ZM8 6.66668H13V5.00001C13 4.33697 12.7366 3.70108 12.2678 3.23224C11.7989 2.7634 11.163 2.50001 10.5 2.50001C9.83696 2.50001 9.20107 2.7634 8.73223 3.23224C8.26339 3.70108 8 4.33697 8 5.00001V6.66668Z" fill="white"/>
</g>
</svg>
