<svg width="25" height="24" viewBox="0 0 25 24" fill="none" xmlns="http://www.w3.org/2000/svg">
<g id="[Icon] linkedin-box-line">
<path id="Vector" d="M4.75 3H20.75C21.0152 3 21.2696 3.10536 21.4571 3.29289C21.6446 3.48043 21.75 3.73478 21.75 4V20C21.75 20.2652 21.6446 20.5196 21.4571 20.7071C21.2696 20.8946 21.0152 21 20.75 21H4.75C4.48478 21 4.23043 20.8946 4.04289 20.7071C3.85536 20.5196 3.75 20.2652 3.75 20V4C3.75 3.73478 3.85536 3.48043 4.04289 3.29289C4.23043 3.10536 4.48478 3 4.75 3ZM5.75 5V19H19.75V5H5.75ZM8.25 9C7.85218 9 7.47064 8.84196 7.18934 8.56066C6.90804 8.27936 6.75 7.89782 6.75 7.5C6.75 7.10218 6.90804 6.72064 7.18934 6.43934C7.47064 6.15804 7.85218 6 8.25 6C8.64782 6 9.02936 6.15804 9.31066 6.43934C9.59196 6.72064 9.75 7.10218 9.75 7.5C9.75 7.89782 9.59196 8.27936 9.31066 8.56066C9.02936 8.84196 8.64782 9 8.25 9ZM7.25 10H9.25V17.5H7.25V10ZM12.75 10.43C13.334 9.865 14.016 9.5 14.75 9.5C16.821 9.5 18.25 11.179 18.25 13.25V17.5H16.25V13.25C16.25 12.7859 16.0656 12.3408 15.7374 12.0126C15.4092 11.6844 14.9641 11.5 14.5 11.5C14.0359 11.5 13.5908 11.6844 13.2626 12.0126C12.9344 12.3408 12.75 12.7859 12.75 13.25V17.5H10.75V10H12.75V10.43Z" fill="#F5F5F5"/>
</g>
</svg>
