<svg width="32" height="32" viewBox="0 0 32 32" fill="none" xmlns="http://www.w3.org/2000/svg">
<g id="[Icon] calendar-check-line">
<path id="Vector" d="M12.0003 1.33334V4.00001H20.0003V1.33334H22.667V4.00001H28.0003C28.3539 4.00001 28.6931 4.14049 28.9431 4.39053C29.1932 4.64058 29.3337 4.97972 29.3337 5.33334V26.6667C29.3337 27.0203 29.1932 27.3594 28.9431 27.6095C28.6931 27.8595 28.3539 28 28.0003 28H4.00033C3.6467 28 3.30756 27.8595 3.05752 27.6095C2.80747 27.3594 2.66699 27.0203 2.66699 26.6667V5.33334C2.66699 4.97972 2.80747 4.64058 3.05752 4.39053C3.30756 4.14049 3.6467 4.00001 4.00033 4.00001H9.33366V1.33334H12.0003ZM26.667 13.3333H5.33366V25.3333H26.667V13.3333ZM20.0483 14.848L21.9337 16.7333L15.3337 23.3333L10.619 18.6187L12.507 16.7333L15.335 19.5627L20.0497 14.848H20.0483ZM9.33366 6.66668H5.33366V10.6667H26.667V6.66668H22.667V8.00001H20.0003V6.66668H12.0003V8.00001H9.33366V6.66668Z" fill="#616161"/>
</g>
</svg>
