<svg width="33" height="32" viewBox="0 0 33 32" fill="none" xmlns="http://www.w3.org/2000/svg">
<g id="[Icon] refund-2-line">
<path id="Vector" d="M16.3333 2.66669C23.6973 2.66669 29.6667 8.63602 29.6667 16C29.6667 23.364 23.6973 29.3334 16.3333 29.3334C13.2247 29.3379 10.2129 28.2517 7.82268 26.264L7.49735 25.9854L8.70002 23.4494C10.4173 25.2095 12.69 26.3222 15.1335 26.5991C17.577 26.8761 20.0411 26.3003 22.1087 24.9691C24.1764 23.638 25.7207 21.6333 26.4801 19.2944C27.2395 16.9555 27.1675 14.4261 26.2761 12.1342C25.3848 9.84227 23.729 7.92874 21.5889 6.71745C19.4488 5.50616 16.9559 5.07151 14.5322 5.48708C12.1085 5.90265 9.90276 7.14291 8.28842 8.99793C6.67408 10.853 5.75027 13.2088 5.67335 15.6667L5.66668 16H9.00002L5.39202 23.6214C3.83097 21.3868 2.9958 18.7258 3.00002 16C3.00002 8.63602 8.96935 2.66669 16.3333 2.66669ZM17.6667 8.00002V10.6667H21V13.3334H13.6667C13.5001 13.333 13.3394 13.3951 13.2163 13.5074C13.0932 13.6196 13.0166 13.7739 13.0015 13.9398C12.9865 14.1057 13.0341 14.2712 13.135 14.4038C13.2359 14.5364 13.3828 14.6263 13.5467 14.656L13.6667 14.6667H19C19.8841 14.6667 20.7319 15.0179 21.357 15.643C21.9822 16.2681 22.3333 17.116 22.3333 18C22.3333 18.8841 21.9822 19.7319 21.357 20.357C20.7319 20.9822 19.8841 21.3334 19 21.3334H17.6667V24H15V21.3334H11.6667V18.6667H19C19.1666 18.667 19.3273 18.6049 19.4504 18.4927C19.5735 18.3804 19.6501 18.2262 19.6652 18.0603C19.6802 17.8943 19.6326 17.7288 19.5317 17.5962C19.4308 17.4637 19.2839 17.3737 19.12 17.344L19 17.3334H13.6667C12.7826 17.3334 11.9348 16.9822 11.3097 16.357C10.6845 15.7319 10.3333 14.8841 10.3333 14C10.3333 13.116 10.6845 12.2681 11.3097 11.643C11.9348 11.0179 12.7826 10.6667 13.6667 10.6667H15V8.00002H17.6667Z" fill="#616161"/>
</g>
</svg>
