<svg width="33" height="32" viewBox="0 0 33 32" fill="none" xmlns="http://www.w3.org/2000/svg">
<g id="[Icon] headphone-line">
<path id="Vector" d="M16.6663 5.33332C13.8374 5.33332 11.1243 6.45713 9.12387 8.45752C7.12348 10.4579 5.99967 13.171 5.99967 16H9.99967C10.7069 16 11.3852 16.2809 11.8853 16.781C12.3854 17.2811 12.6663 17.9594 12.6663 18.6667V25.3333C12.6663 26.0406 12.3854 26.7188 11.8853 27.2189C11.3852 27.719 10.7069 28 9.99967 28H5.99967C5.29243 28 4.61415 27.719 4.11406 27.2189C3.61396 26.7188 3.33301 26.0406 3.33301 25.3333V16C3.33301 8.63599 9.30234 2.66666 16.6663 2.66666C24.0303 2.66666 29.9997 8.63599 29.9997 16V25.3333C29.9997 26.0406 29.7187 26.7188 29.2186 27.2189C28.7185 27.719 28.0403 28 27.333 28H23.333C22.6258 28 21.9475 27.719 21.4474 27.2189C20.9473 26.7188 20.6663 26.0406 20.6663 25.3333V18.6667C20.6663 17.9594 20.9473 17.2811 21.4474 16.781C21.9475 16.2809 22.6258 16 23.333 16H27.333C27.333 13.171 26.2092 10.4579 24.2088 8.45752C22.2084 6.45713 19.4953 5.33332 16.6663 5.33332ZM5.99967 18.6667V25.3333H9.99967V18.6667H5.99967ZM23.333 18.6667V25.3333H27.333V18.6667H23.333Z" fill="#616161"/>
</g>
</svg>
