<svg width="40" height="40" viewBox="0 0 40 40" fill="none" xmlns="http://www.w3.org/2000/svg">
<path d="M15 16V14C15 12.6739 15.5268 11.4021 16.4645 10.4645C17.4021 9.52678 18.6739 9 20 9C21.3261 9 22.5979 9.52678 23.5355 10.4645C24.4732 11.4021 25 12.6739 25 14V16H28C28.2652 16 28.5196 16.1054 28.7071 16.2929C28.8946 16.4804 29 16.7348 29 17V29C29 29.2652 28.8946 29.5196 28.7071 29.7071C28.5196 29.8946 28.2652 30 28 30H12C11.7348 30 11.4804 29.8946 11.2929 29.7071C11.1054 29.5196 11 29.2652 11 29V17C11 16.7348 11.1054 16.4804 11.2929 16.2929C11.4804 16.1054 11.7348 16 12 16H15ZM15 18H13V28H27V18H25V20H23V18H17V20H15V18ZM17 16H23V14C23 13.2044 22.6839 12.4413 22.1213 11.8787C21.5587 11.3161 20.7956 11 20 11C19.2044 11 18.4413 11.3161 17.8787 11.8787C17.3161 12.4413 17 13.2044 17 14V16Z" fill="#424242"/>
</svg>
