<svg width="203" height="120" viewBox="0 0 203 120" fill="none" xmlns="http://www.w3.org/2000/svg">
<g id="[Cell] Logo">
<path id="Exclude" fill-rule="evenodd" clip-rule="evenodd" d="M60.2969 120C76.275 120 90.7944 113.754 101.547 103.571C112.299 113.754 126.819 120 142.797 120C175.934 120 202.797 93.1371 202.797 60C202.797 26.8629 175.934 0 142.797 0C126.819 0 112.299 6.24563 101.547 16.4287C90.7944 6.24563 76.275 0 60.2969 0C27.1598 0 0.296875 26.8629 0.296875 60C0.296875 93.1371 27.1598 120 60.2969 120ZM24.6719 31.875H32.1719C34.2428 31.875 35.9219 33.5541 35.9219 35.625V54.375H28.4219C26.351 54.375 24.6719 52.6959 24.6719 50.625V31.875ZM35.9219 65.625V54.375H58.4219V31.875H65.9219C67.9928 31.875 69.6719 33.5541 69.6719 35.625V88.125H62.1719C60.101 88.125 58.4219 86.4459 58.4219 84.375V65.625H35.9219ZM35.9219 65.625V88.125H28.4219C26.351 88.125 24.6719 86.4459 24.6719 84.375V69.375C24.6719 67.3041 26.351 65.625 28.4219 65.625H35.9219ZM129.672 39.375C129.672 41.4459 127.993 43.125 125.922 43.125H109.047V88.125H101.547C99.476 88.125 97.7969 86.4459 97.7969 84.375V43.125H77.1719V35.625C77.1719 33.5541 78.851 31.875 80.9219 31.875H129.672V39.375ZM140.922 31.875H178.422V39.375C178.422 41.4459 176.743 43.125 174.672 43.125H148.422V76.875H178.422V84.375C178.422 86.4459 176.743 88.125 174.672 88.125H140.922C138.851 88.125 137.172 86.4459 137.172 84.375V35.625C137.172 33.5541 138.851 31.875 140.922 31.875Z" fill="url(#paint0_linear_961_8485)"/>
<g id="Subtract">
<path d="M120.297 60C120.297 77.1589 113.094 92.6355 101.547 103.571C89.9998 92.6355 82.7969 77.1589 82.7969 60C82.7969 54.1409 83.6367 48.478 85.2025 43.125H97.7969V84.375C97.7969 86.4461 99.4758 88.125 101.547 88.125H109.047V43.125H117.891C119.457 48.478 120.297 54.1409 120.297 60Z" fill="url(#paint1_linear_961_8485)"/>
<path d="M113.31 31.875C110.24 26.1006 106.255 20.8872 101.547 16.4287C96.8391 20.8872 92.8533 26.1006 89.7835 31.875H113.31Z" fill="url(#paint2_linear_961_8485)"/>
</g>
</g>
<defs>
<linearGradient id="paint0_linear_961_8485" x1="101.415" y1="60" x2="101.693" y2="60" gradientUnits="userSpaceOnUse">
<stop stop-color="#103783"/>
<stop offset="1" stop-color="#1A5BDA"/>
</linearGradient>
<linearGradient id="paint1_linear_961_8485" x1="82.7969" y1="61.4287" x2="120.297" y2="61.4287" gradientUnits="userSpaceOnUse">
<stop stop-color="#1A5BDA"/>
<stop offset="1" stop-color="#103783"/>
</linearGradient>
<linearGradient id="paint2_linear_961_8485" x1="82.7969" y1="61.4287" x2="120.297" y2="61.4287" gradientUnits="userSpaceOnUse">
<stop stop-color="#1A5BDA"/>
<stop offset="1" stop-color="#103783"/>
</linearGradient>
</defs>
</svg>
