<svg width="156" height="32" viewBox="0 0 156 32" fill="none" xmlns="http://www.w3.org/2000/svg">
<g id="HTCSoftLogo/Shade-Black">
<g id="Soft">
<path d="M120.17 12.3782C120.058 12.2662 119.85 12.1142 119.546 11.9222C119.258 11.7302 118.898 11.5462 118.466 11.3702C118.05 11.1942 117.594 11.0422 117.098 10.9142C116.602 10.7702 116.098 10.6982 115.586 10.6982C114.69 10.6982 114.01 10.8662 113.546 11.2022C113.098 11.5382 112.874 12.0102 112.874 12.6182C112.874 13.0822 113.018 13.4502 113.306 13.7222C113.594 13.9942 114.026 14.2262 114.602 14.4182C115.178 14.6102 115.898 14.8182 116.762 15.0422C117.882 15.3142 118.85 15.6502 119.666 16.0502C120.498 16.4342 121.13 16.9462 121.562 17.5862C122.01 18.2102 122.234 19.0422 122.234 20.0822C122.234 20.9942 122.066 21.7782 121.73 22.4342C121.394 23.0742 120.93 23.5942 120.338 23.9942C119.746 24.3942 119.074 24.6902 118.322 24.8822C117.57 25.0582 116.77 25.1462 115.922 25.1462C115.074 25.1462 114.226 25.0582 113.378 24.8822C112.53 24.7062 111.714 24.4582 110.93 24.1382C110.146 23.8022 109.426 23.4022 108.77 22.9382L110.234 20.0822C110.378 20.2262 110.634 20.4182 111.002 20.6582C111.37 20.8822 111.818 21.1142 112.346 21.3542C112.874 21.5782 113.45 21.7702 114.074 21.9302C114.698 22.0902 115.33 22.1702 115.97 22.1702C116.866 22.1702 117.546 22.0182 118.01 21.7142C118.474 21.4102 118.706 20.9782 118.706 20.4182C118.706 19.9062 118.522 19.5062 118.154 19.2182C117.786 18.9302 117.274 18.6822 116.618 18.4742C115.962 18.2502 115.186 18.0102 114.29 17.7542C113.218 17.4502 112.322 17.1142 111.602 16.7462C110.882 16.3622 110.346 15.8822 109.994 15.3062C109.642 14.7302 109.466 14.0102 109.466 13.1462C109.466 11.9782 109.738 11.0022 110.282 10.2182C110.842 9.41821 111.594 8.81821 112.538 8.41821C113.482 8.00221 114.53 7.79421 115.682 7.79421C116.482 7.79421 117.234 7.88221 117.938 8.05821C118.658 8.23421 119.33 8.46621 119.954 8.75421C120.578 9.04221 121.138 9.35421 121.634 9.69021L120.17 12.3782Z" fill="#2E2E2E"/>
<path d="M130.232 25.1942C129.208 25.1942 128.288 25.0262 127.472 24.6902C126.656 24.3382 125.96 23.8582 125.384 23.2502C124.824 22.6422 124.392 21.9462 124.088 21.1622C123.784 20.3782 123.632 19.5542 123.632 18.6902C123.632 17.8102 123.784 16.9782 124.088 16.1942C124.392 15.4102 124.824 14.7142 125.384 14.1062C125.96 13.4982 126.656 13.0262 127.472 12.6902C128.288 12.3382 129.208 12.1622 130.232 12.1622C131.256 12.1622 132.168 12.3382 132.968 12.6902C133.784 13.0262 134.48 13.4982 135.056 14.1062C135.632 14.7142 136.064 15.4102 136.352 16.1942C136.656 16.9782 136.808 17.8102 136.808 18.6902C136.808 19.5542 136.656 20.3782 136.352 21.1622C136.064 21.9462 135.632 22.6422 135.056 23.2502C134.496 23.8582 133.808 24.3382 132.992 24.6902C132.176 25.0262 131.256 25.1942 130.232 25.1942ZM126.944 18.6902C126.944 19.4262 127.088 20.0822 127.376 20.6582C127.664 21.2182 128.056 21.6582 128.552 21.9782C129.048 22.2982 129.608 22.4582 130.232 22.4582C130.84 22.4582 131.392 22.2982 131.888 21.9782C132.384 21.6422 132.776 21.1942 133.064 20.6342C133.368 20.0582 133.52 19.4022 133.52 18.6662C133.52 17.9462 133.368 17.2982 133.064 16.7222C132.776 16.1462 132.384 15.6982 131.888 15.3782C131.392 15.0582 130.84 14.8982 130.232 14.8982C129.608 14.8982 129.048 15.0662 128.552 15.4022C128.056 15.7222 127.664 16.1702 127.376 16.7462C127.088 17.3062 126.944 17.9542 126.944 18.6902Z" fill="#2E2E2E"/>
<path d="M139.63 24.9542V15.4982H137.974V13.0502H139.63V12.2822C139.63 11.2422 139.798 10.3462 140.134 9.59421C140.486 8.82621 140.974 8.23421 141.598 7.81821C142.238 7.40221 142.982 7.19421 143.83 7.19421C144.342 7.19421 144.854 7.25821 145.366 7.38621C145.894 7.51421 146.414 7.69821 146.926 7.93821L146.278 10.3622C146.038 10.2342 145.758 10.1302 145.438 10.0502C145.118 9.95421 144.814 9.90621 144.526 9.90621C143.982 9.90621 143.566 10.0982 143.278 10.4822C142.99 10.8662 142.846 11.4262 142.846 12.1622V13.0502H145.918V15.4982H142.846V24.9542H139.63Z" fill="#2E2E2E"/>
<path d="M155.281 24.3062C155.009 24.4182 154.681 24.5462 154.297 24.6902C153.913 24.8342 153.497 24.9462 153.049 25.0262C152.617 25.1222 152.177 25.1702 151.729 25.1702C151.137 25.1702 150.593 25.0662 150.097 24.8582C149.601 24.6502 149.201 24.3222 148.897 23.8742C148.609 23.4102 148.465 22.8102 148.465 22.0742V14.8502H146.809V12.3782H148.465V8.29821H151.681V12.3782H154.321V14.8502H151.681V20.9942C151.697 21.4262 151.817 21.7382 152.041 21.9302C152.265 22.1222 152.545 22.2182 152.881 22.2182C153.217 22.2182 153.545 22.1622 153.865 22.0502C154.185 21.9382 154.441 21.8422 154.633 21.7622L155.281 24.3062Z" fill="#2E2E2E"/>
</g>
<g id="HTC">
<path d="M74.8749 8.15423V25.1942H71.5869V17.9222H63.8589V25.1942H60.5469V8.15423H63.8589V15.0422H71.5869V8.15423H74.8749Z" fill="#434343"/>
<path d="M91.1737 11.0582H85.7257V25.1942H82.4377V11.0582H76.9897V8.15423H91.1737V11.0582Z" fill="#434343"/>
<path d="M91.8586 16.5542C91.8586 15.5142 92.0426 14.4982 92.4106 13.5062C92.7946 12.4982 93.3466 11.5862 94.0666 10.7702C94.7866 9.93823 95.6666 9.28223 96.7066 8.80223C97.7466 8.30623 98.9306 8.05823 100.259 8.05823C101.827 8.05823 103.179 8.40223 104.315 9.09023C105.467 9.77823 106.323 10.6742 106.883 11.7782L104.339 13.5302C104.051 12.8902 103.675 12.3862 103.211 12.0182C102.747 11.6342 102.251 11.3702 101.723 11.2262C101.195 11.0662 100.675 10.9862 100.163 10.9862C99.3306 10.9862 98.6026 11.1542 97.9786 11.4902C97.3706 11.8262 96.8586 12.2662 96.4426 12.8102C96.0266 13.3542 95.7146 13.9622 95.5066 14.6342C95.3146 15.3062 95.2186 15.9782 95.2186 16.6502C95.2186 17.4022 95.3386 18.1302 95.5786 18.8342C95.8186 19.5222 96.1546 20.1382 96.5866 20.6822C97.0346 21.2102 97.5626 21.6342 98.1706 21.9542C98.7946 22.2582 99.4746 22.4102 100.211 22.4102C100.739 22.4102 101.275 22.3222 101.819 22.1462C102.363 21.9702 102.867 21.6902 103.331 21.3062C103.795 20.9222 104.155 20.4262 104.411 19.8182L107.123 21.3782C106.787 22.2262 106.235 22.9462 105.467 23.5382C104.715 24.1302 103.867 24.5782 102.923 24.8822C101.979 25.1862 101.043 25.3382 100.115 25.3382C98.8986 25.3382 97.7866 25.0902 96.7786 24.5942C95.7706 24.0822 94.8986 23.4102 94.1626 22.5782C93.4426 21.7302 92.8746 20.7862 92.4586 19.7462C92.0586 18.6902 91.8586 17.6262 91.8586 16.5542Z" fill="#434343"/>
</g>
<path id="Exclude" fill-rule="evenodd" clip-rule="evenodd" d="M16.5469 32C20.8077 32 24.6796 30.3345 27.5469 27.619C30.4142 30.3345 34.286 32 38.5469 32C47.3834 32 54.5469 24.8365 54.5469 16C54.5469 7.16345 47.3834 0 38.5469 0C34.286 0 30.4142 1.66553 27.5469 4.38098C24.6796 1.66553 20.8077 0 16.5469 0C7.71033 0 0.546875 7.16345 0.546875 16C0.546875 24.8365 7.71033 32 16.5469 32ZM7.04688 8.5H9.04688C9.59912 8.5 10.0469 8.94775 10.0469 9.5V14.5H8.04688C7.49463 14.5 7.04688 14.0522 7.04688 13.5V8.5ZM10.0469 17.5V14.5H16.0469V8.5H18.0469C18.5991 8.5 19.0469 8.94775 19.0469 9.5V23.5H17.0469C16.4946 23.5 16.0469 23.0522 16.0469 22.5V17.5H10.0469ZM10.0469 17.5V23.5H8.04688C7.49463 23.5 7.04688 23.0522 7.04688 22.5V18.5C7.04688 17.9478 7.49463 17.5 8.04688 17.5H10.0469ZM35.0469 10.5C35.0469 11.0522 34.5991 11.5 34.0469 11.5H29.5469V23.5H27.5469C26.9946 23.5 26.5469 23.0522 26.5469 22.5V11.5H21.0469V9.5C21.0469 8.94775 21.4946 8.5 22.0469 8.5H35.0469V10.5ZM38.0469 8.5H48.0469V10.5C48.0469 11.0522 47.5991 11.5 47.0469 11.5H40.0469V20.5H48.0469V22.5C48.0469 23.0522 47.5991 23.5 47.0469 23.5H38.0469C37.4946 23.5 37.0469 23.0522 37.0469 22.5V9.5C37.0469 8.94775 37.4946 8.5 38.0469 8.5Z" fill="url(#paint0_linear_256_9065)"/>
<g id="Subtract">
<path d="M32.5469 16C32.5469 20.5757 30.6261 24.7028 27.5469 27.619C24.4677 24.7028 22.5469 20.5757 22.5469 16C22.5469 14.4376 22.7708 12.9275 23.1884 11.5H26.5469V22.5C26.5469 23.0522 26.9946 23.5 27.5469 23.5H29.5469V11.5H31.9054C32.323 12.9275 32.5469 14.4376 32.5469 16Z" fill="url(#paint1_linear_256_9065)"/>
<path d="M30.6838 8.5C29.8652 6.96008 28.8022 5.56995 27.5469 4.38098C26.2915 5.56995 25.2285 6.96008 24.4099 8.5H30.6838Z" fill="url(#paint2_linear_256_9065)"/>
</g>
</g>
<defs>
<linearGradient id="paint0_linear_256_9065" x1="27.5195" y1="16" x2="27.5742" y2="16" gradientUnits="userSpaceOnUse">
<stop stop-color="#2E2E2E"/>
<stop offset="1" stop-color="#434343"/>
</linearGradient>
<linearGradient id="paint1_linear_256_9065" x1="22.5469" y1="16.381" x2="32.5469" y2="16.381" gradientUnits="userSpaceOnUse">
<stop stop-color="#434343"/>
<stop offset="1" stop-color="#2E2E2E"/>
</linearGradient>
<linearGradient id="paint2_linear_256_9065" x1="22.5469" y1="16.381" x2="32.5469" y2="16.381" gradientUnits="userSpaceOnUse">
<stop stop-color="#434343"/>
<stop offset="1" stop-color="#2E2E2E"/>
</linearGradient>
</defs>
</svg>
