<svg width="22" height="22" viewBox="0 0 22 22" fill="none" xmlns="http://www.w3.org/2000/svg">
<g id="Vector">
<path id="XMLID_30_" d="M7.62441 0.604179C4.94521 1.52188 2.65998 3.52956 1.39127 6.06098C0.947882 6.93571 0.627374 7.86544 0.436616 8.82654C-0.0497307 11.2162 0.288822 13.76 1.39127 15.94C2.10575 17.3625 3.1343 18.6252 4.37852 19.6108C5.55486 20.547 6.92196 21.237 8.37585 21.6249C10.2052 22.1177 12.1575 22.1053 14.0049 21.6864C15.6741 21.3044 17.2508 20.504 18.5071 19.3462C19.8372 18.1204 20.7859 16.5131 21.2911 14.7826C21.8393 12.8917 21.9132 10.8776 21.5682 8.94383C18.1191 8.94383 14.67 8.94383 11.2149 8.94383C11.2149 10.3728 11.2149 11.8078 11.2149 13.2367C13.2105 13.2367 15.2122 13.2367 17.2074 13.2367C16.9733 14.6103 16.1604 15.8605 15.0025 16.6364C14.2756 17.1228 13.4443 17.4433 12.582 17.5911C11.7137 17.7389 10.8205 17.7574 9.95819 17.5851C9.07744 17.4128 8.23965 17.0429 7.50712 16.5256C6.3368 15.7063 5.44402 14.4994 4.98817 13.1504C4.5203 11.7768 4.51386 10.2435 4.98817 8.86993C5.3147 7.90282 5.86291 7.0036 6.58341 6.27708C7.47018 5.3654 8.62203 4.7188 9.86625 4.45414C10.9317 4.22643 12.0527 4.2694 13.0937 4.58346C13.9804 4.85456 14.7937 5.33489 15.4648 5.97548C16.1424 5.30396 16.8135 4.62685 17.491 3.95533C17.842 3.59186 18.2179 3.24687 18.5625 2.87136C17.54 1.92273 16.3331 1.15927 15.021 0.678935C12.6683 -0.202676 10.0016 -0.221151 7.62441 0.604179Z" fill="white"/>
<path id="XMLID_31_" d="M7.62416 0.603995C10.0013 -0.221334 12.6685 -0.20286 15.0332 0.671877C16.3449 1.15221 17.5462 1.9161 18.5747 2.86431C18.2297 3.23379 17.8602 3.5848 17.5032 3.94828C16.8257 4.6198 16.1546 5.2969 15.477 5.96842C14.8055 5.32783 13.9926 4.84149 13.1059 4.5764C12.0649 4.26234 10.944 4.21938 9.87846 4.44708C8.63424 4.71174 7.48281 5.36478 6.59562 6.27002C5.87512 6.99697 5.3269 7.89619 5.00038 8.86287C3.79955 7.93271 2.59829 6.99654 1.39746 6.06681C2.65973 3.52938 4.94496 1.5217 7.62416 0.603995Z" fill="#E94435"/>
<path id="XMLID_32_" d="M0.436861 8.82611C0.627619 7.86544 0.954141 6.93528 1.39151 6.06055C2.59234 6.99071 3.7936 7.92688 4.99443 8.85661C4.52011 10.2302 4.52656 11.7635 4.99443 13.1371C3.7936 14.0672 2.59234 15.0034 1.39151 15.9331C0.289066 13.7656 -0.0494866 11.2157 0.436861 8.82611Z" fill="#F8BB15"/>
<path id="XMLID_33_" d="M11.2202 8.9375C14.6693 8.9375 18.1184 8.9375 21.5735 8.9375C21.9185 10.8713 21.8446 12.8854 21.2964 14.7762C20.7916 16.5068 19.843 18.1205 18.5124 19.3398C17.3485 18.4346 16.1782 17.5289 15.0203 16.6237C16.1782 15.8538 16.991 14.5975 17.2252 13.224C15.2295 13.224 13.2279 13.224 11.2326 13.224C11.2142 11.8014 11.2202 10.3725 11.2202 8.9375Z" fill="#547DBE"/>
<path id="XMLID_34_" d="M1.39209 15.9396C2.59292 15.0095 3.79418 14.0733 4.99501 13.1436C5.45085 14.4986 6.34364 15.6995 7.51396 16.5188C8.24692 17.0361 9.08428 17.3995 9.96503 17.5782C10.8273 17.7505 11.7265 17.7321 12.5888 17.5843C13.4511 17.4365 14.2824 17.1164 15.0094 16.6296C16.1733 17.5349 17.3436 18.4405 18.5015 19.3458C17.2452 20.5097 15.6684 21.3045 13.9993 21.686C12.1579 22.1049 10.2052 22.1169 8.37023 21.6246C6.91677 21.2366 5.54924 20.5466 4.3729 19.6104C3.13512 18.6188 2.10657 17.3561 1.39209 15.9396Z" fill="#34A751"/>
</g>
</svg>
